# xmcd CD database file
#
# Track frame offsets:
#	150
#	14242
#	26967
#	40384
#	55879
#	68724
#	82332
#	96149
#	109289
#	123299
#	138649
#	152124
#	166504
#
# Disc length: 2414 seconds
#
# Revision: 5
# Processed by: cddbd v1.4PL0 Copyright (c) Steve Scherf et al.
# Submitted via: CDex 1.50Beta7
#
DISCID=b8096c0d
DTITLE=Truck Stop - Wilde Reiter
DYEAR=2002
DGENRE=Country
TTITLE0=SO STELL ICH MIR DEN HIMMEL VOR
TTITLE1=COPS and TRUCKER
TTITLE2=MORGENS IN MONTANA
TTITLE3=WILDE REITER
TTITLE4=SAGT'N COWBOY HOWDY, HOWDY
TTITLE5=EINE HAND VOLLER GRÜNDE
TTITLE6=EIN WAHRER FREUND
TTITLE7=BOCK AUF'N PICKUP TRUCK
TTITLE8=EIN MANN IM BESTEN ALTER
TTITLE9=MIT 'NER HERDE WILDER PFERDE
TTITLE10=SITZT, PASST, WACKELT UND HAT LUFT
TTITLE11=OHNE DICH KEINE LIEBE
TTITLE12=IMMER NOCH WACH
EXTD=YEAR: 2002
EXTT0=
EXTT1=
EXTT2=
EXTT3=
EXTT4=
EXTT5=
EXTT6=
EXTT7=
EXTT8=
EXTT9=
EXTT10=
EXTT11=
EXTT12=
PLAYORDER=
